HIERARCHY
ROOT Hips
{
	OFFSET 0.00 0.00 0.00
	CHANNELS 6 Xposition Yposition Zposition Xrotation Yrotation Zrotation
	JOINT RightUpLeg
	{
		OFFSET -4.47808 0.00000 0.00000
		CHANNELS 3 Xrotation Yrotation Zrotation
		JOINT RightLeg
		{
			OFFSET 0.00000 -16.40577 0.00000
			CHANNELS 3 Xrotation Yrotation Zrotation
			JOINT RightFoot
			{
				OFFSET 0.00000 -14.64414 0.00000
				CHANNELS 3 Xrotation Yrotation Zrotation
				JOINT RightToeBase
				{
					OFFSET 0.00000 -1.50274 5.60831
					CHANNELS 3 Xrotation Yrotation Zrotation
					End Site
					{
						OFFSET 0.00000 0.00000 2.95275
					}
				}
			}
		}
	}
	JOINT LeftUpLeg
	{
		OFFSET 4.47808 0.00000 0.00000
		CHANNELS 3 Xrotation Yrotation Zrotation
		JOINT LeftLeg
		{
			OFFSET 0.00000 -16.40577 0.00000
			CHANNELS 3 Xrotation Yrotation Zrotation
			JOINT LeftFoot
			{
				OFFSET 0.00000 -14.64414 0.00000
				CHANNELS 3 Xrotation Yrotation Zrotation
				JOINT LeftToeBase
				{
					OFFSET 0.00000 -1.50274 5.60831
					CHANNELS 3 Xrotation Yrotation Zrotation
					End Site
					{
						OFFSET 0.00000 0.00000 2.95275
					}
				}
			}
		}
	}
	JOINT Spine
	{
		OFFSET 0.00000 6.06821 0.00000
		CHANNELS 3 Xrotation Yrotation Zrotation
		JOINT RightShoulder
		{
			OFFSET 0.00000 10.01392 0.00000
			CHANNELS 3 Xrotation Yrotation Zrotation
			JOINT RightArm
			{
				OFFSET -7.19022 0.00000 0.00000
				CHANNELS 3 Xrotation Yrotation Zrotation
				JOINT RightForeArm
				{
					OFFSET -10.17747 0.00000 0.00000
					CHANNELS 3 Yrotation Zrotation Xrotation
					JOINT RightHand
					{
						OFFSET -8.39211 0.00000 0.00000
						CHANNELS 3 Xrotation Yrotation Zrotation
						End Site
						{
							OFFSET -3.93700 0.00000 0.00000
						}
						JOINT RightHandThumb1
						{
							OFFSET 0.00000 0.00000 0.00000
							CHANNELS 3 Xrotation Zrotation Yrotation
							End Site
							{
								OFFSET 0.00000 0.00000 3.93700
							}
						}
					}
				}
			}
		}
		JOINT LeftShoulder
		{
			OFFSET 0.00000 10.01392 0.00000
			CHANNELS 3 Xrotation Yrotation Zrotation
			JOINT LeftArm
			{
				OFFSET 7.19022 0.00000 0.00000
				CHANNELS 3 Xrotation Yrotation Zrotation
				JOINT LeftForeArm
				{
					OFFSET 10.17747 0.00000 0.00000
					CHANNELS 3 Yrotation Zrotation Xrotation
					JOINT LeftHand
					{
						OFFSET 8.39211 0.00000 0.00000
						CHANNELS 3 Xrotation Yrotation Zrotation
						End Site
						{
							OFFSET 3.93700 0.00000 0.00000
						}
						JOINT LeftHandThumb1
						{
							OFFSET 0.00000 0.00000 0.00000
							CHANNELS 3 Xrotation Zrotation Yrotation
							End Site
							{
								OFFSET 0.00000 0.00000 3.93700
							}
						}
					}
				}
			}
		}
		JOINT Head
		{
			OFFSET 0.00000 15.77748 0.00000
			CHANNELS 3 Xrotation Yrotation Zrotation
			End Site
			{
				OFFSET 0.00000 4.52755 0.00000
			}
		}
	}
}
MOTION
Frames: 13
Frame Time: 0.008333
 -2.7978 33.2927 -4.5119 15.4185 -2.8551 3.4434 -9.3546 -5.7360 -1.6688 -0.0688 0.0000 -0.0000 -10.7087 -7.8784 -2.1589 4.1139 -0.0000 -0.0000 -9.6878 2.1911 2.1265 2.2641 -0.0000 0.0000 -9.4079 7.2848 -13.5608 9.6705 0.0000 -0.0000 -17.0684 -0.6740 -1.1158 4.2976 -24.4838 -27.0359 -32.1435 1.7046 35.2437 11.6576 0.0000 9.5225 -1.2744 7.7177 9.4057 32.8623 0.0000 -24.3270 -8.3444 22.7629 32.4886 -27.9839 -0.3942 -31.6751 -0.2889 0.0000 21.8080 0.3970 2.6130 -8.6423 33.1476 -0.0000 26.2537 -4.2704 2.0784 -0.0222
 -2.7984 33.2932 -4.5136 15.4243 -2.8607 3.4417 -9.3661 -5.7325 -1.6643 -0.0635 -0.0000 0.0000 -10.7042 -7.8764 -2.1687 4.1098 0.0000 -0.0000 -9.6961 2.1810 2.1300 2.2664 -0.0000 -0.0000 -9.4042 7.3053 -13.5754 9.6893 0.0000 -0.0000 -17.0763 -0.6659 -1.1147 4.2908 -24.4904 -27.0365 -32.1538 1.6885 35.2462 11.6525 0.0000 9.5114 -1.2672 7.7131 9.3589 32.8623 0.0000 -24.3270 -8.3672 22.7600 32.5069 -27.9627 -0.4112 -31.6480 -0.2878 0.0000 21.7705 0.4089 2.7062 -8.5951 33.1476 -0.0000 26.2537 -4.2847 2.0449 0.0086
 -2.7994 33.2940 -4.5169 15.4597 -2.8651 3.4427 -9.4134 -5.7303 -1.6616 -0.0518 -0.0000 -0.0000 -10.7007 -7.8726 -2.1639 4.1114 -0.0000 0.0000 -9.7455 2.1828 2.1333 2.2867 0.0000 0.0000 -9.4119 7.3103 -13.5588 9.7024 -0.0000 0.0000 -17.1256 -0.6411 -1.1201 4.3081 -24.5055 -27.0246 -32.1698 1.6635 35.2395 11.6491 0.0000 9.5045 -1.2585 7.6773 9.3387 32.8623 0.0000 -24.3270 -8.3398 22.7582 32.5119 -27.9846 -0.4280 -31.6121 -0.2708 0.0000 21.7666 0.3920 2.6029 -8.5685 33.1476 -0.0000 26.2537 -4.2688 2.0649 0.0006
 -2.8005 33.2945 -4.5174 15.4590 -2.8625 3.4414 -9.4158 -5.7476 -1.6594 -0.0550 -0.0000 0.0000 -10.6935 -7.8242 -2.1811 3.8651 -0.0000 0.0000 -9.7469 2.1807 2.1361 2.2873 -0.0000 -0.0000 -9.3998 7.3074 -13.5620 9.6795 -0.0000 -0.0000 -17.1355 -0.6391 -1.1213 4.3004 -24.4921 -27.0126 -32.1350 1.6836 35.2092 11.6553 0.0000 9.4018 -1.2284 7.5458 9.2738 32.8623 0.0000 -24.3270 -8.3354 22.7487 32.5132 -27.9717 -0.4388 -31.5672 -0.2734 0.0000 21.7408 0.3923 2.6150 -8.5337 33.1476 -0.0000 26.2537 -4.2612 2.0669 -0.0022
 -2.8017 33.2948 -4.5185 15.4586 -2.8571 3.4384 -9.4163 -5.7332 -1.6543 -0.0453 0.0000 0.0000 -10.6979 -7.8731 -2.1842 4.1179 -0.0000 0.0000 -9.7499 2.1705 2.1408 2.2882 0.0000 0.0000 -9.3979 7.3083 -13.5567 9.6891 -0.0000 0.0000 -17.1413 -0.6384 -1.1269 4.2965 -24.4985 -26.9984 -32.1161 1.6942 35.1994 11.6472 0.0000 9.3728 -1.2226 7.5302 9.2494 32.8623 0.0000 -24.3270 -8.3319 22.7534 32.5296 -27.9789 -0.4436 -31.5413 -0.2796 0.0000 21.7428 0.3888 2.5918 -8.5343 33.1476 -0.0000 26.2537 -4.2617 2.0629 0.0134
 -2.8017 33.2952 -4.5191 15.4567 -2.8588 3.4377 -9.4175 -5.7458 -1.6546 -0.0424 -0.0000 -0.0000 -10.6957 -7.8577 -2.1624 4.1311 -0.0000 0.0000 -9.7504 2.1703 2.1395 2.2951 -0.0000 -0.0000 -9.4015 7.3151 -13.5429 9.6612 0.0000 -0.0000 -17.1469 -0.6369 -1.1258 4.3098 -24.5077 -26.9926 -32.1024 1.6928 35.2014 11.6648 0.0000 9.3727 -1.2194 7.5314 9.2242 32.8623 0.0000 -24.3270 -8.3351 22.7591 32.5443 -27.9724 -0.4473 -31.5202 -0.2903 0.0000 21.7473 0.3860 2.5726 -8.5356 33.1476 -0.0000 26.2537 -4.2614 2.0784 0.0205
 -2.8025 33.2952 -4.5192 15.4598 -2.8608 3.4338 -9.4208 -5.7418 -1.6495 -0.0407 -0.0000 -0.0000 -10.6913 -7.8630 -2.1636 4.1254 -0.0000 0.0000 -9.7565 2.1761 2.1461 2.2968 0.0000 0.0000 -9.4066 7.3113 -13.5434 9.6569 -0.0000 -0.0000 -17.1465 -0.6314 -1.1297 4.3022 -24.5468 -26.9978 -32.1130 1.6719 35.2408 11.7305 0.0000 9.3380 -1.2169 7.3001 9.4908 32.8623 0.0000 -24.3270 -8.3707 22.7611 32.5750 -27.9465 -0.4603 -31.5003 -0.3048 0.0000 21.7247 0.3890 2.5971 -8.5224 33.1476 -0.0000 26.2537 -4.2968 2.0789 0.0454
 -2.8037 33.2952 -4.5210 15.4597 -2.8622 3.4315 -9.4274 -5.7295 -1.6456 -0.0329 0.0000 0.0000 -10.6911 -7.8689 -2.1718 4.1296 -0.0000 0.0000 -9.7617 2.1808 2.1512 2.3023 -0.0000 0.0000 -9.4025 7.3047 -13.5406 9.6412 0.0000 0.0000 -17.1514 -0.6304 -1.1362 4.3459 -24.5849 -26.9933 -32.1676 1.6157 35.2946 11.7314 0.0000 9.4649 -1.2485 7.5289 9.4434 32.8623 0.0000 -24.3270 -8.3706 22.7721 32.6046 -27.9668 -0.4491 -31.4905 -0.3177 0.0000 21.7365 0.3943 2.6380 -8.5053 33.1476 -0.0000 26.2537 -4.2951 2.0837 0.0685
 -2.8043 33.2952 -4.5221 15.4600 -2.8622 3.4289 -9.4285 -5.7126 -1.6420 -0.0320 0.0000 -0.0000 -10.6886 -7.8868 -2.1589 4.1165 -0.0000 -0.0000 -9.7664 2.1679 2.1545 2.3063 0.0000 0.0000 -9.4059 7.3221 -13.5597 9.6731 0.0000 -0.0000 -17.1542 -0.6262 -1.1342 4.3655 -24.6032 -26.9842 -32.1887 1.5854 35.3035 11.7599 0.0000 9.4231 -1.2477 7.4800 9.4983 32.8623 0.0000 -24.3270 -8.3752 22.7802 32.6191 -27.9946 -0.4367 -31.4721 -0.3248 0.0000 21.7651 0.3998 2.6749 -8.5032 33.1476 -0.0000 26.2537 -4.3006 2.0893 0.0753
 -2.8043 33.2954 -4.5233 15.4578 -2.8702 3.4285 -9.4343 -5.7128 -1.6417 -0.0214 0.0000 -0.0000 -10.6931 -7.8783 -2.1481 4.1511 -0.0000 0.0000 -9.7734 2.1801 2.1574 2.3226 -0.0000 0.0000 -9.4133 7.3107 -13.5494 9.6713 0.0000 0.0000 -17.1528 -0.6200 -1.1332 4.3781 -24.6189 -26.9758 -32.2238 1.5361 35.3167 11.8051 0.0000 9.4315 -1.2513 7.4505 9.5615 32.8623 0.0000 -24.3270 -8.3873 22.7830 32.6304 -28.0193 -0.4149 -31.4427 -0.3297 0.0000 21.7878 0.3912 2.6151 -8.5121 33.1476 -0.0000 26.2537 -4.3094 2.0941 0.0875
 -2.8055 33.2956 -4.5247 15.4574 -2.8698 3.4288 -9.4388 -5.7153 -1.6396 -0.0158 -0.0000 0.0000 -10.6956 -7.8799 -2.1485 4.1356 0.0000 -0.0000 -9.7684 2.1609 2.1570 2.3102 -0.0000 -0.0000 -9.4016 7.3324 -13.5296 9.6356 -0.0000 0.0000 -17.1568 -0.6203 -1.1340 4.3743 -24.6087 -26.9608 -32.1882 1.5573 35.3010 11.7632 0.0000 9.4118 -1.2451 7.4382 9.5306 32.8623 0.0000 -24.3270 -8.3873 22.7805 32.6298 -28.0145 -0.4154 -31.4028 -0.3229 0.0000 21.7470 0.3862 2.5821 -8.5101 33.1476 -0.0000 26.2537 -4.3038 2.1059 0.0884
 -2.8057 33.2958 -4.5259 15.4540 -2.8734 3.4302 -9.4405 -5.7071 -1.6409 -0.0093 0.0000 -0.0000 -10.6975 -7.8791 -2.1565 4.1343 0.0000 0.0000 -9.7766 2.1708 2.1575 2.3320 -0.0000 -0.0000 -9.4140 7.3274 -13.5322 9.6804 -0.0000 -0.0000 -17.1575 -0.6165 -1.1271 4.3684 -24.5957 -26.9426 -32.1562 1.5735 35.2715 11.6888 0.0000 9.3984 -1.2719 7.5975 9.5328 32.8623 0.0000 -24.3270 -8.3938 22.7753 32.6241 -28.0051 -0.4147 -31.3690 -0.3182 0.0000 21.7343 0.3861 2.5807 -8.5111 33.1476 -0.0000 26.2537 -4.3020 2.1129 0.0728
 -2.8057 33.2961 -4.5274 15.4512 -2.8817 3.4311 -9.4442 -5.7033 -1.6408 -0.0041 -0.0000 -0.0000 -10.6893 -7.8727 -2.1642 4.0949 -0.0000 -0.0000 -9.7773 2.1769 2.1573 2.3379 0.0000 -0.0000 -9.4153 7.3279 -13.5402 9.6676 -0.0000 -0.0000 -17.1566 -0.6122 -1.1216 4.3803 -24.5969 -26.9259 -32.1698 1.5563 35.2666 11.6825 0.0000 9.4250 -1.2757 7.6966 9.4404 32.8623 0.0000 -24.3270 -8.3900 22.7780 32.6231 -28.0233 -0.3930 -31.3414 -0.3315 0.0000 21.7514 0.3874 2.5730 -8.5651 33.1476 -0.0000 26.2537 -4.3008 2.1288 0.0662
